<svg width="22px" height="16px" viewBox="0 0 22 16" version="1.1" xmlns="http://www.w3.org/2000/svg" xmlns:xlink="http://www.w3.org/1999/xlink">
    <!-- Generator: Sketch 45.2 (43514) - http://www.bohemiancoding.com/sketch -->
    <desc>Created with Sketch.</desc>
    <defs></defs>
    <g id="Page-1" stroke="none" stroke-width="1" fill="none" fill-rule="evenodd">
        <g id="SEPTA_text" fill-rule="nonzero">
            <rect id="Rectangle-path" fill="#FFFFFF" x="1.82558051" y="0.0233050847" width="18.3333178" height="15.863072"></rect>
            <path d="M19.9386653,0.0304830508 L15.2154703,0.0304830508 L7.77872458,5.27762288 L14.7079788,5.27762288 L20.1044576,10.6489788 L14.8945593,15.885678 L19.9387119,15.885678 C21.1298814,15.885678 21.9999068,14.7058814 21.9999068,13.8676441 L21.9999068,2.05891102 C21.9998602,1.21023305 21.1298347,0.0304830508 19.9386653,0.0304830508 L19.9386653,0.0304830508 Z" id="path2578" fill="#F14728"></path>
            <path d="M2.08188983,15.885678 L6.79473729,15.885678 L14.2315297,10.6593263 L7.31257627,10.6593263 L1.89544915,5.27762288 L7.13648305,0.0304830508 L2.08188983,0.0304830508 C0.880372881,0.0304830508 0.0310423729,1.21023305 0.0310423729,2.06925847 L0.0310423729,13.8779915 C0.0310889831,14.705928 0.880372881,15.885678 2.08188983,15.885678 L2.08188983,15.885678 Z" id="path2580" fill="#1F4FA3"></path>
            <path d="M8.96984746,5.77434746 L8.30686441,5.77434746 L12.3671229,9.83115678 C12.5536102,9.98660169 12.6985212,10.1728093 13.0196653,10.152161 L13.7136907,10.152161 L9.63269068,6.10551271 C9.44629661,5.89851695 9.31159322,5.77434746 8.96984746,5.77434746 L8.96984746,5.77434746 Z" id="path2582" fill="#F14728"></path>
        </g>
    </g>
</svg>